<?xml version="1.0" encoding="UTF-8"?>
<svg id="Layer_1" data-name="Layer 1" xmlns="http://www.w3.org/2000/svg" viewBox="0 0 422.34 390.6">
  <defs>
    <style>
      .cls-1 {
        fill: #ffff94;
      }

      .cls-2 {
        fill: #eff1f2;
      }
    </style>
  </defs>
  <g>
    <path class="cls-1" d="m211.29,120.3c10.72-7.69,21.46-16.35,33.13-23.51,13.72-8.43,28.73-13.8,45.28-13.48,25.64.5,41.81,18.81,38.85,44.24-1.11,9.57-1.87,19.23-3.79,28.65-3.79,18.59-11.41,34.86-30.85,43.36,2.13,1.95,3.7,3.6,5.47,4.98,23.39,18.24,31.82,42.95,31.17,71.65-.43,19.04-7.58,35.55-18.87,50.51-14.37,19.03-31.21,35.52-51.13,48.68-32.29,21.33-70.63,20.19-103.21-3.08-20.52-14.66-37.92-32.46-51.99-53.42-21.8-32.48-17.8-80.07,8.96-106.43,4.35-4.28,9.23-8.02,14.13-12.23-.71-.59-1.13-1.08-1.67-1.35-15.86-7.96-24.27-21.53-27.41-38.31-2.41-12.85-4.42-25.92-4.92-38.96-.82-21.57,15.17-37.53,36.88-38.27,19.4-.66,36.63,6.13,52.48,16.43,9.85,6.4,18.88,14.04,27.5,20.54Zm102.02,150.56c-13.62,6.25-27.35,8.08-41.1,9.03-19.1,1.32-38.28,2.77-57.39,2.41-25.94-.5-51.87-2.3-77.74-4.32-9.03-.7-17.88-3.71-27.7-5.86,1.99,2.7,3.28,5.98,5.68,7.43,5.61,3.38,11.49,6.94,17.74,8.53,22.64,5.76,45.81,8.26,69.15,9.15,25.41.96,50.58-1.64,75.51-6.16,8.73-1.58,17.28-4.6,25.61-7.77,4.94-1.88,8.93-5.64,10.24-12.43Zm-23.8-122.64c.13-12.92-9.31-22.52-22.5-22.89-12.25-.35-23.15,10.16-23.26,22.43-.12,12.65,9.49,22.82,21.85,23.12,13.3.32,23.79-9.61,23.92-22.66Zm-131.86,22.52c12.9,0,23.59-10.06,23.59-22.17,0-13.16-9.65-23.09-22.41-23.09-12.85,0-23.06,9.9-23.16,22.46-.1,12.86,9.49,22.82,21.98,22.81Zm57.12,39.4c6.16-2.74,11.96-5.06,17.51-7.86,5.21-2.63,6.51-6.35,4.31-10.46-2.08-3.89-6.97-4.76-11.74-1.82-7.28,4.47-10.12,11.27-10.07,20.15Zm-7.55-.35c.92-8.61-2.96-16.79-9.32-19.92-4.56-2.25-9.7-1.38-11.58,1.94-2.21,3.92-.51,8.36,4.62,10.87,5.3,2.58,10.8,4.74,16.27,7.11Z"/>
    <path class="cls-1" d="m97.4,53.06c6.83-15.02,17.3-25.67,33.93-31.48-13.87-2.63-25.64-.62-37.14,5.35,23.78-34.59,86.54-39.95,111.45,8.22,19.95-6.54,39.82-13.28,56.26-28.15,4.23,10.52,1.53,19.4-5.47,28.65,19.69-5.21,37.34-11.07,48.36-28.27,10.01,9.22,17.79,31.02,15.79,44.56-41.13-2.06-77.47,10.4-109.2,37.46-15.78-13.51-33.16-24.23-53.11-30.58-19.78-6.3-39.83-8.9-60.87-5.75Z"/>
    <path class="cls-1" d="m73.04,200.8c-.86-.46-1.26-.8-1.72-.89-20.14-4.24-28.44-18.9-31.66-37.21-1.27-7.19-.95-14.88,0-22.17.76-5.92,5.17-10.13,11.32-11.21,6.46-1.14,12.79.25,16.33,6.06,2.77,4.54,5.21,9.99,5.54,15.17,1.53,23.92,2.2,47.9,3.37,71.85.19,3.84-1.22,5.09-4.8,5.78-14.6,2.82-26.49-2.87-37.17-11.77-17.13-14.27-25.73-33.56-30.78-54.67-3.76-15.7-5.03-31.63-.92-47.43,5.18-19.91,16.75-33.9,38.04-37.53,11.86-2.02,22.74,1.51,32.84,7.58.98.59,1.7,2.41,1.71,3.67.13,11.13.08,22.27-.28,33.6-7.84-14.33-18.11-24.74-35.87-21.47-11.85,2.18-19.29,10.2-23.54,21.51,7.15-5.04,14.64-8.84,23.67-8.32-21.03,19.59-14.82,42.36-7.21,64.95,1.96,5.82,5.71,11.33,9.69,16.11,7.6,9.11,19.89,11.38,31.43,6.39Z"/>
    <path class="cls-1" d="m348.33,120.39c0-10.8-.14-21.61.15-32.4.04-1.66,1.68-3.89,3.2-4.82,25.99-15.82,57.14-4.19,66.39,25.03,8.01,25.32,4.01,49.96-5.78,73.97-6.67,16.37-16.4,30.47-31.81,39.9-8.94,5.47-18.54,7.98-29.11,5.98-2.93-.55-4.39-1.5-4.24-4.77,1.13-24.62,2.03-49.25,3.28-73.86.17-3.37,1.47-6.83,2.89-9.95,3.55-7.82,10.37-11.37,18.64-10.2,6.5.92,12.19,6.77,12.95,14.64,1.45,15.01-1.6,29.15-9.99,41.86-4.09,6.19-9.91,10.21-17,12.41-2.34.73-4.63,1.62-7.99,2.8,8.21,3.61,15.65,3.19,22.2-.43,5.06-2.79,10.24-6.79,13.29-11.58,10.67-16.73,14.13-35.31,11.05-54.96-1.33-8.47-6.21-14.88-13.57-20.79,9.72-.22,16.82,3.95,23.81,8.87-1.04-9.19-12.6-21.31-25.21-22.57-10.17-1.01-23.79,2.59-33.15,20.88Z"/>
  </g>
  <circle class="cls-2" cx="172.55" cy="145.61" r="5.02"/>
  <circle class="cls-2" cx="279.73" cy="145.61" r="5.02"/>
</svg>